<svg xmlns="http://www.w3.org/2000/svg" width="30" height="30" viewBox="0 0 30 30" fill="none">
  <path d="M3.44043 29.1666C2.72404 29.1666 2.11043 28.9112 1.59959 28.4003C1.08876 27.8895 0.833344 27.2759 0.833344 26.5595V3.44034C0.833344 2.72395 1.08876 2.11034 1.59959 1.5995C2.11043 1.08867 2.72404 0.833252 3.44043 0.833252H26.5596C27.276 0.833252 27.8896 1.08867 28.4004 1.5995C28.9113 2.11034 29.1667 2.72395 29.1667 3.44034V26.5595C29.1667 27.2759 28.9113 27.8895 28.4004 28.4003C27.8896 28.9112 27.276 29.1666 26.5596 29.1666H3.44043ZM4.65584 17.0191L11.5704 10.1045L18.44 16.9745L25.3271 10.0874L27.0725 11.8333V3.44034C27.0725 3.29061 27.0245 3.1677 26.9283 3.07158C26.8322 2.97547 26.7093 2.92742 26.5596 2.92742H3.44043C3.29071 2.92742 3.16779 2.97547 3.07168 3.07158C2.97557 3.1677 2.92751 3.29061 2.92751 3.44034V15.2908L4.65584 17.0191ZM3.44043 27.0724H26.5596C26.7093 27.0724 26.8322 27.0244 26.9283 26.9283C27.0245 26.8321 27.0725 26.7092 27.0725 26.5595V14.8074L25.3271 13.062L18.44 19.9487L11.5704 13.0791L4.65584 19.9828L2.92751 18.2649V26.5595C2.92751 26.7092 2.97557 26.8321 3.07168 26.9283C3.16779 27.0244 3.29071 27.0724 3.44043 27.0724ZM2.92751 27.0724V14.8074V16.9016V2.92742V27.0724Z" fill="#959595"/>
</svg>